<svg width="157" height="40" viewBox="0 0 157 40" fill="none" xmlns="http://www.w3.org/2000/svg">
<path fill-rule="evenodd" clip-rule="evenodd" d="M31.0256 9.14276H35.6827C36.1034 9.14276 36.4446 9.48391 36.4446 9.90469V11.8094C36.4446 12.2302 36.1034 12.5714 35.6827 12.5714H33.5893C32.8955 11.3106 32.0304 10.1573 31.0256 9.14276ZM27.9816 12.5714H20.0636C19.6429 12.5714 19.3018 12.2302 19.3018 11.8094V9.90469C19.3018 9.48391 19.6429 9.14276 20.0636 9.14276C23.1862 9.14276 26.001 10.461 27.9816 12.5714ZM27.9816 27.4285C26.001 29.5388 23.1862 30.8571 20.0636 30.8571C19.6429 30.8571 19.3018 30.516 19.3018 30.0952V28.1904C19.3018 27.7696 19.6429 27.4285 20.0636 27.4285H27.9816ZM33.5893 27.4285H35.6827C36.1034 27.4285 36.4446 27.7696 36.4446 28.1904V30.0952C36.4446 30.516 36.1034 30.8571 35.6827 30.8571H31.0256C32.0304 29.8425 32.8955 28.6893 33.5893 27.4285ZM30.5409 22.8571C30.2018 24.1034 29.6463 25.2605 28.9172 26.2857H20.0636C19.6429 26.2857 19.3018 25.9445 19.3018 25.5237V23.619C19.3018 23.1982 19.6429 22.8571 20.0636 22.8571H30.5409ZM35.2281 22.8571H35.6827C36.1034 22.8571 36.4446 23.1982 36.4446 23.619V25.5237C36.4446 25.9445 36.1034 26.2857 35.6827 26.2857H34.1579C34.6415 25.203 35.004 24.0544 35.2281 22.8571ZM30.7862 18.2857C30.8748 18.844 30.9208 19.4166 30.9208 19.9999C30.9208 20.5832 30.8748 21.1558 30.7862 21.7142H20.0636C19.6429 21.7142 19.3018 21.3731 19.3018 20.9523V19.0476C19.3018 18.6267 19.6429 18.2857 20.0636 18.2857H30.7862ZM35.398 18.2857H35.6827C36.1034 18.2857 36.4446 18.6267 36.4446 19.0476V20.9523C36.4446 21.3731 36.1034 21.7142 35.6827 21.7142H35.398C35.4602 21.1514 35.4922 20.5794 35.4922 19.9999C35.4922 19.4205 35.4602 18.8485 35.398 18.2857ZM28.9172 13.7142C29.6463 14.7393 30.2018 15.8964 30.5409 17.1428H20.0001C19.5794 17.1428 19.2383 16.8017 19.2383 16.3809V14.4761C19.2383 14.0554 19.5794 13.7142 20.0001 13.7142H28.9172ZM34.1579 13.7142H35.6192C36.0399 13.7142 36.3811 14.0554 36.3811 14.4761V16.3809C36.3811 16.8017 36.0399 17.1428 35.6192 17.1428H35.2281C35.004 15.9455 34.6415 14.7969 34.1579 13.7142Z" fill="white"/>
<path fill-rule="evenodd" clip-rule="evenodd" d="M20 40C8.95428 40 0 31.0457 0 20C0 8.95428 8.95428 0 20 0C31.0457 0 40 8.95428 40 20C40 31.0457 31.0457 40 20 40ZM20 35.4286C28.521 35.4286 35.4286 28.521 35.4286 20C35.4286 11.479 28.521 4.57143 20 4.57143C11.479 4.57143 4.57143 11.479 4.57143 20C4.57143 28.521 11.479 35.4286 20 35.4286Z" fill="white"/>
<path d="M79.9464 16.0953C83.2322 16.0953 85.896 18.6537 85.896 21.8095V29.619C85.896 29.8295 85.7187 30 85.4993 30H83.9126C83.6939 30 83.5159 29.8295 83.5159 29.619V21.8095C83.5159 19.916 81.918 18.381 79.9464 18.381C77.9747 18.381 76.3769 19.916 76.3769 21.8095V29.619C76.3769 29.8295 76.1988 30 75.9802 30H74.3934C74.174 30 73.9967 29.8295 73.9967 29.619V21.8095C73.9967 18.6537 76.6605 16.0953 79.9464 16.0953Z" fill="white"/>
<path d="M74.3934 16.0953H75.9802C76.1988 16.0953 76.3769 16.2658 76.3769 16.4763V28.8571C76.3769 29.0676 76.1988 29.2381 75.9802 29.2381H74.3934C74.174 29.2381 73.9967 29.0676 73.9967 28.8571V16.4763C73.9967 16.2658 74.174 16.0953 74.3934 16.0953Z" fill="white"/>
<path d="M99.778 29.9999C105.626 29.9999 110.289 25.5227 110.289 19.9999C110.289 14.4772 105.626 10 99.778 10C99.2557 10 98.3958 10 97.1976 10V12.4762H99.778C104.314 12.4762 107.909 15.9295 107.909 20.1904C107.909 24.4513 104.314 27.7142 99.778 27.7142C99.2424 27.7142 98.3825 27.7142 97.1976 27.7142V29.9999H99.778Z" fill="white"/>
<path d="M95.4149 10H97.3983V29.9999H95.4149C95.1955 29.9999 95.0182 29.8294 95.0182 29.6189V10.3809C95.0182 10.1706 95.1955 10 95.4149 10Z" fill="white"/>
<path fill-rule="evenodd" clip-rule="evenodd" d="M50 19.9999C50 14.4772 54.6616 10 60.4118 10C66.1618 10 70.8238 14.4772 70.8238 19.9999C70.8238 25.5227 66.1618 29.9999 60.4118 29.9999C54.6616 29.9999 50 25.5227 50 19.9999ZM60.4118 12.2857C55.9759 12.2857 52.3799 15.7395 52.3799 19.9999C52.3799 24.2604 55.9759 27.7142 60.4118 27.7142C64.8476 27.7142 68.4437 24.2604 68.4437 19.9999C68.4437 15.7395 64.8476 12.2857 60.4118 12.2857Z" fill="white"/>
<path d="M146.701 20.936L151.345 16.5844C151.419 16.515 151.518 16.4762 151.622 16.4762H154.155C154.264 16.4762 154.353 16.5614 154.353 16.6666C154.353 16.7172 154.333 16.7656 154.295 16.8013L149.18 21.7142L155.956 29.6882C156.024 29.7697 156.012 29.8898 155.928 29.9563C155.891 29.9841 155.847 29.9991 155.801 29.9991L153.431 29.9953C153.313 29.9951 153.202 29.9446 153.127 29.8576L147.494 23.3332L146.701 24.0952V29.6142C146.701 29.8245 146.524 29.9951 146.304 29.9951H144.717C144.499 29.9951 144.321 29.8245 144.321 29.6142V11.3333C144.321 11.123 144.499 10.9524 144.717 10.9524H146.304C146.524 10.9524 146.701 11.123 146.701 11.3333V20.936Z" fill="white"/>
<path d="M140.93 18.2053L140.855 18.1263C139.597 16.8713 137.862 16.0953 135.944 16.0953C133.974 16.0953 132.196 16.8641 130.931 18.1568C129.72 19.3998 128.991 21.1146 128.991 23.0476C128.991 27.0778 132.104 30 135.944 30C137.853 30 139.584 29.23 140.84 27.9839L140.835 27.9788L140.922 27.8903C141.068 27.7419 141.066 27.5094 140.918 27.3631L139.813 26.2711C139.664 26.1241 139.421 26.1182 139.264 26.2555C138.422 27.1605 137.231 27.7143 135.944 27.7143C133.401 27.7143 131.371 25.7987 131.371 23.0476C131.371 20.2965 133.401 18.381 135.944 18.381C137.234 18.381 138.428 18.938 139.272 19.8476C139.43 19.977 139.667 19.9681 139.814 19.8232L140.922 18.7282C141.069 18.5834 141.073 18.354 140.93 18.2053Z" fill="white"/>
<path d="M112.966 23.0476C112.966 19.1216 115.974 16.0953 119.919 16.0953C123.72 16.0953 126.746 19.1202 126.868 22.8152C126.842 23.0003 126.676 23.1429 126.475 23.1429H117.368C117.15 23.1429 116.972 22.9723 116.972 22.762V21.8095C116.972 21.5992 117.15 21.4286 117.368 21.4286H124.212C123.559 19.624 121.847 18.381 119.919 18.381C117.377 18.381 115.346 20.2965 115.346 23.0476C115.346 25.7987 117.377 27.7143 119.919 27.7143C121.207 27.7143 122.397 27.1605 123.24 26.2555C123.396 26.1182 123.639 26.1241 123.789 26.2711L124.894 27.3631C125.042 27.5094 125.044 27.7419 124.897 27.8903L124.81 27.9788L124.815 27.9839C123.565 29.2264 121.841 30 119.919 30C115.974 30 112.966 26.9736 112.966 23.0476Z" fill="white"/>
<path d="M85.946 21.8095C85.946 18.6242 83.2579 16.0453 79.9464 16.0453C76.6348 16.0453 73.9467 18.6242 73.9467 21.8095V29.619C73.9467 29.859 74.1483 30.05 74.3934 30.05H75.9802C76.2245 30.05 76.4269 29.859 76.4269 29.619V21.8095C76.4269 19.9455 78.0004 18.431 79.9464 18.431C81.8923 18.431 83.4659 19.9455 83.4659 21.8095V29.619C83.4659 29.859 83.6683 30.05 83.9126 30.05H85.4993C85.7445 30.05 85.946 29.859 85.946 29.619V21.8095Z" stroke="white" stroke-width="0.1" stroke-linejoin="round"/>
<path d="M75.9802 16.0453H74.3934C74.1483 16.0453 73.9467 16.2364 73.9467 16.4763V28.8571C73.9467 29.097 74.1483 29.2881 74.3934 29.2881H75.9802C76.2245 29.2881 76.4269 29.0971 76.4269 28.8571V16.4763C76.4269 16.2363 76.2245 16.0453 75.9802 16.0453Z" stroke="white" stroke-width="0.1" stroke-linejoin="round"/>
<path d="M97.1976 9.95C97.17 9.95 97.1476 9.97239 97.1476 10V12.4762C97.1476 12.5038 97.17 12.5262 97.1976 12.5262H99.778C104.288 12.5262 107.859 15.9594 107.859 20.1904C107.859 24.4198 104.29 27.6642 99.778 27.6642H99.7748H99.7717H99.7685H99.7653H99.7622H99.759H99.7558H99.7526H99.7494H99.7462H99.743H99.7398H99.7365H99.7333H99.73H99.7268H99.7235H99.7203H99.717H99.7137H99.7104H99.7071H99.7038H99.7005H99.6972H99.6939H99.6905H99.6872H99.6838H99.6805H99.6771H99.6737H99.6704H99.667H99.6636H99.6602H99.6568H99.6533H99.6499H99.6465H99.6431H99.6396H99.6362H99.6327H99.6292H99.6257H99.6223H99.6188H99.6153H99.6118H99.6083H99.6047H99.6012H99.5977H99.5941H99.5906H99.587H99.5835H99.5799H99.5763H99.5727H99.5691H99.5655H99.5619H99.5583H99.5547H99.551H99.5474H99.5438H99.5401H99.5364H99.5328H99.5291H99.5254H99.5217H99.518H99.5143H99.5106H99.5069H99.5032H99.4994H99.4957H99.4919H99.4882H99.4844H99.4806H99.4768H99.4731H99.4693H99.4655H99.4616H99.4578H99.454H99.4502H99.4463H99.4425H99.4386H99.4348H99.4309H99.427H99.4231H99.4193H99.4154H99.4114H99.4075H99.4036H99.3997H99.3957H99.3918H99.3878H99.3839H99.3799H99.376H99.372H99.368H99.364H99.36H99.356H99.352H99.3479H99.3439H99.3399H99.3358H99.3318H99.3277H99.3236H99.3195H99.3155H99.3114H99.3073H99.3032H99.299H99.2949H99.2908H99.2867H99.2825H99.2784H99.2742H99.27H99.2659H99.2617H99.2575H99.2533H99.2491H99.2449H99.2407H99.2364H99.2322H99.228H99.2237H99.2195H99.2152H99.2109H99.2067H99.2024H99.1981H99.1938H99.1895H99.1852H99.1808H99.1765H99.1722H99.1678H99.1635H99.1591H99.1547H99.1504H99.146H99.1416H99.1372H99.1328H99.1284H99.124H99.1195H99.1151H99.1107H99.1062H99.1018H99.0973H99.0928H99.0883H99.0839H99.0794H99.0749H99.0704H99.0658H99.0613H99.0568H99.0522H99.0477H99.0432H99.0386H99.034H99.0294H99.0249H99.0203H99.0157H99.0111H99.0065H99.0018H98.9972H98.9926H98.9879H98.9833H98.9786H98.974H98.9693H98.9646H98.9599H98.9552H98.9505H98.9458H98.9411H98.9364H98.9317H98.9269H98.9222H98.9174H98.9127H98.9079H98.9031H98.8983H98.8935H98.8887H98.8839H98.8791H98.8743H98.8695H98.8646H98.8598H98.855H98.8501H98.8452H98.8404H98.8355H98.8306H98.8257H98.8208H98.8159H98.811H98.806H98.8011H98.7962H98.7912H98.7863H98.7813H98.7763H98.7714H98.7664H98.7614H98.7564H98.7514H98.7464H98.7414H98.7363H98.7313H98.7262H98.7212H98.7161H98.7111H98.706H98.7009H98.6958H98.6907H98.6856H98.6805H98.6754H98.6703H98.6652H98.66H98.6549H98.6497H98.6445H98.6394H98.6342H98.629H98.6238H98.6186H98.6134H98.6082H98.603H98.5978H98.5925H98.5873H98.582H98.5768H98.5715H98.5662H98.5609H98.5557H98.5504H98.5451H98.5397H98.5344H98.5291H98.5238H98.5184H98.5131H98.5077H98.5024H98.497H98.4916H98.4862H98.4808H98.4754H98.47H98.4646H98.4592H98.4538H98.4483H98.4429H98.4374H98.432H98.4265H98.421H98.4156H98.4101H98.4046H98.3991H98.3936H98.388H98.3825H98.377H98.3714H98.3659H98.3603H98.3548H98.3492H98.3436H98.338H98.3324H98.3268H98.3212H98.3156H98.31H98.3044H98.2987H98.2931H98.2874H98.2818H98.2761H98.2704H98.2647H98.2591H98.2534H98.2477H98.2419H98.2362H98.2305H98.2248H98.219H98.2133H98.2075H98.2017H98.196H98.1902H98.1844H98.1786H98.1728H98.167H98.1612H98.1554H98.1495H98.1437H98.1379H98.132H98.1261H98.1203H98.1144H98.1085H98.1026H98.0967H98.0908H98.0849H98.079H98.0731H98.0671H98.0612H98.0552H98.0493H98.0433H98.0373H98.0314H98.0254H98.0194H98.0134H98.0074H98.0013H97.9953H97.9893H97.9833H97.9772H97.9712H97.9651H97.959H97.9529H97.9469H97.9408H97.9347H97.9286H97.9225H97.9163H97.9102H97.9041H97.8979H97.8918H97.8856H97.8795H97.8733H97.8671H97.8609H97.8547H97.8485H97.8423H97.8361H97.8299H97.8236H97.8174H97.8111H97.8049H97.7986H97.7924H97.7861H97.7798H97.7735H97.7672H97.7609H97.7546H97.7483H97.7419H97.7356H97.7292H97.7229H97.7165H97.7102H97.7038H97.6974H97.691H97.6846H97.6782H97.6718H97.6654H97.659H97.6525H97.6461H97.6397H97.6332H97.6267H97.6203H97.6138H97.6073H97.6008H97.5943H97.5878H97.5813H97.5748H97.5682H97.5617H97.5551H97.5486H97.542H97.5355H97.5289H97.5223H97.5157H97.5091H97.5025H97.4959H97.4893H97.4827H97.476H97.4694H97.4627H97.4561H97.4494H97.4428H97.4361H97.4294H97.4227H97.416H97.4093H97.4026H97.3958H97.3891H97.3824H97.3756H97.3689H97.3621H97.3553H97.3486H97.3418H97.335H97.3282H97.3214H97.3146H97.3078H97.3009H97.2941H97.2873H97.2804H97.2736H97.2667H97.2598H97.2529H97.246H97.2392H97.2323H97.2253H97.2184H97.2115H97.2046H97.1976C97.17 27.6642 97.1476 27.6865 97.1476 27.7142V29.9999C97.1476 30.0275 97.17 30.0499 97.1976 30.0499H99.778C105.652 30.0499 110.339 25.5525 110.339 19.9999C110.339 14.4474 105.652 9.95 99.778 9.95H99.7749H99.7718H99.7687H99.7657H99.7626H99.7595H99.7563H99.7532H99.7501H99.747H99.7438H99.7407H99.7375H99.7344H99.7312H99.728H99.7248H99.7216H99.7184H99.7152H99.712H99.7088H99.7055H99.7023H99.699H99.6958H99.6925H99.6892H99.686H99.6827H99.6794H99.6761H99.6728H99.6694H99.6661H99.6628H99.6594H99.6561H99.6527H99.6494H99.646H99.6426H99.6392H99.6358H99.6324H99.629H99.6256H99.6222H99.6187H99.6153H99.6118H99.6084H99.6049H99.6014H99.598H99.5945H99.591H99.5875H99.584H99.5804H99.5769H99.5734H99.5698H99.5663H99.5627H99.5592H99.5556H99.552H99.5484H99.5448H99.5412H99.5376H99.534H99.5303H99.5267H99.5231H99.5194H99.5158H99.5121H99.5084H99.5047H99.501H99.4973H99.4936H99.4899H99.4862H99.4825H99.4787H99.475H99.4712H99.4675H99.4637H99.4599H99.4562H99.4524H99.4486H99.4448H99.4409H99.4371H99.4333H99.4295H99.4256H99.4218H99.4179H99.414H99.4102H99.4063H99.4024H99.3985H99.3946H99.3907H99.3867H99.3828H99.3789H99.3749H99.371H99.367H99.363H99.3591H99.3551H99.3511H99.3471H99.3431H99.3391H99.3351H99.331H99.327H99.3229H99.3189H99.3148H99.3108H99.3067H99.3026H99.2985H99.2944H99.2903H99.2862H99.2821H99.2779H99.2738H99.2696H99.2655H99.2613H99.2572H99.253H99.2488H99.2446H99.2404H99.2362H99.232H99.2278H99.2235H99.2193H99.215H99.2108H99.2065H99.2023H99.198H99.1937H99.1894H99.1851H99.1808H99.1765H99.1721H99.1678H99.1635H99.1591H99.1548H99.1504H99.146H99.1417H99.1373H99.1329H99.1285H99.1241H99.1197H99.1152H99.1108H99.1064H99.1019H99.0975H99.093H99.0885H99.084H99.0796H99.0751H99.0706H99.0661H99.0615H99.057H99.0525H99.0479H99.0434H99.0388H99.0343H99.0297H99.0251H99.0205H99.0159H99.0113H99.0067H99.0021H98.9975H98.9929H98.9882H98.9836H98.9789H98.9742H98.9696H98.9649H98.9602H98.9555H98.9508H98.9461H98.9414H98.9366H98.9319H98.9272H98.9224H98.9177H98.9129H98.9081H98.9033H98.8986H98.8938H98.889H98.8842H98.8793H98.8745H98.8697H98.8648H98.86H98.8551H98.8503H98.8454H98.8405H98.8356H98.8307H98.8258H98.8209H98.816H98.8111H98.8061H98.8012H98.7962H98.7913H98.7863H98.7813H98.7763H98.7714H98.7664H98.7614H98.7563H98.7513H98.7463H98.7413H98.7362H98.7312H98.7261H98.721H98.716H98.7109H98.7058H98.7007H98.6956H98.6905H98.6854H98.6802H98.6751H98.67H98.6648H98.6596H98.6545H98.6493H98.6441H98.6389H98.6337H98.6285H98.6233H98.6181H98.6129H98.6076H98.6024H98.5971H98.5919H98.5866H98.5813H98.576H98.5708H98.5655H98.5601H98.5548H98.5495H98.5442H98.5388H98.5335H98.5281H98.5228H98.5174H98.512H98.5067H98.5013H98.4959H98.4905H98.485H98.4796H98.4742H98.4688H98.4633H98.4579H98.4524H98.4469H98.4415H98.436H98.4305H98.425H98.4195H98.414H98.4084H98.4029H98.3974H98.3918H98.3863H98.3807H98.3751H98.3696H98.364H98.3584H98.3528H98.3472H98.3416H98.3359H98.3303H98.3247H98.319H98.3134H98.3077H98.302H98.2964H98.2907H98.285H98.2793H98.2736H98.2678H98.2621H98.2564H98.2507H98.2449H98.2392H98.2334H98.2276H98.2218H98.2161H98.2103H98.2045H98.1986H98.1928H98.187H98.1812H98.1753H98.1695H98.1636H98.1578H98.1519H98.146H98.1401H98.1342H98.1283H98.1224H98.1165H98.1106H98.1046H98.0987H98.0928H98.0868H98.0808H98.0749H98.0689H98.0629H98.0569H98.0509H98.0449H98.0389H98.0329H98.0268H98.0208H98.0147H98.0087H98.0026H97.9965H97.9905H97.9844H97.9783H97.9722H97.9661H97.9599H97.9538H97.9477H97.9415H97.9354H97.9292H97.9231H97.9169H97.9107H97.9045H97.8983H97.8921H97.8859H97.8797H97.8735H97.8672H97.861H97.8547H97.8485H97.8422H97.8359H97.8297H97.8234H97.8171H97.8108H97.8045H97.7981H97.7918H97.7855H97.7791H97.7728H97.7664H97.7601H97.7537H97.7473H97.7409H97.7345H97.7281H97.7217H97.7153H97.7088H97.7024H97.696H97.6895H97.683H97.6766H97.6701H97.6636H97.6571H97.6506H97.6441H97.6376H97.6311H97.6246H97.618H97.6115H97.6049H97.5984H97.5918H97.5852H97.5786H97.5721H97.5655H97.5589H97.5522H97.5456H97.539H97.5323H97.5257H97.5191H97.5124H97.5057H97.499H97.4924H97.4857H97.479H97.4723H97.4655H97.4588H97.4521H97.4454H97.4386H97.4319H97.4251H97.4183H97.4116H97.4048H97.398H97.3912H97.3844H97.3776H97.3707H97.3639H97.3571H97.3502H97.3434H97.3365H97.3296H97.3227H97.3159H97.309H97.3021H97.2952H97.2882H97.2813H97.2744H97.2675H97.2605H97.2535H97.2466H97.2396H97.2326H97.2257H97.2187H97.2117H97.2046H97.1976Z" stroke="white" stroke-width="0.1" stroke-linejoin="round"/>
<path d="M97.4483 10C97.4483 9.97239 97.426 9.95 97.3983 9.95H95.4149C95.1698 9.95 94.9682 10.1411 94.9682 10.3809V29.6189C94.9682 29.8589 95.1698 30.0499 95.4149 30.0499H97.3983C97.426 30.0499 97.4483 30.0275 97.4483 29.9999V10Z" stroke="white" stroke-width="0.1" stroke-linejoin="round"/>
<path d="M60.4118 9.95C54.6359 9.95 49.95 14.4477 49.95 19.9999C49.95 25.5522 54.6359 30.0499 60.4118 30.0499C66.1875 30.0499 70.8738 25.5522 70.8738 19.9999C70.8738 14.4477 66.1875 9.95 60.4118 9.95ZM52.4299 19.9999C52.4299 15.769 56.0016 12.3357 60.4118 12.3357C64.8219 12.3357 68.3937 15.769 68.3937 19.9999C68.3937 24.2309 64.8219 27.6642 60.4118 27.6642C56.0016 27.6642 52.4299 24.2309 52.4299 19.9999Z" stroke="white" stroke-width="0.1" stroke-linejoin="round"/>
<path d="M146.751 20.8206V11.3333C146.751 11.0935 146.549 10.9024 146.304 10.9024H144.717C144.473 10.9024 144.271 11.0934 144.271 11.3333V29.6142C144.271 29.854 144.473 30.0451 144.717 30.0451H146.304C146.549 30.0451 146.751 29.8539 146.751 29.6142V24.1165L147.491 23.4058L153.089 29.8901C153.089 29.8901 153.089 29.8902 153.089 29.8902L153.089 29.8903L146.751 20.8206ZM146.751 20.8206L151.31 16.5479L151.311 16.5478C151.394 16.4697 151.506 16.4262 151.622 16.4262H154.155C154.29 16.4262 154.403 16.5317 154.403 16.6666C154.403 16.7309 154.377 16.7924 154.33 16.8374C154.33 16.8375 154.33 16.8375 154.329 16.8376L149.249 21.7177L146.751 20.8206Z" stroke="white" stroke-width="0.1" stroke-linejoin="round"/>
<path d="M140.889 27.9955C140.887 28.0045 140.882 28.0128 140.875 28.0194C139.61 29.2744 137.867 30.05 135.944 30.05C132.077 30.05 128.941 27.1063 128.941 23.0476C128.941 21.1018 129.675 19.3743 130.895 18.1219L130.895 18.1218C132.17 16.8193 133.961 16.0453 135.944 16.0453C137.875 16.0453 139.623 16.8269 140.89 18.0909L140.891 18.0918L140.891 18.0918L140.966 18.1707C141.128 18.3393 141.124 18.5999 140.957 18.7638L139.849 19.8588L139.849 19.8588C139.684 20.0218 139.418 20.0316 139.24 19.8863L139.235 19.8819L139.235 19.8816C138.4 18.9817 137.22 18.431 135.944 18.431C133.429 18.431 131.421 20.3243 131.421 23.0476C131.421 25.7709 133.429 27.6643 135.944 27.6643C137.216 27.6643 138.394 27.1168 139.228 26.2214L139.231 26.2177L139.231 26.2179C139.408 26.0634 139.68 26.0699 139.848 26.2356L140.954 27.3275L140.954 27.3275C141.121 27.4932 141.123 27.7572 140.958 27.9254C140.958 27.9254 140.958 27.9254 140.958 27.9254M140.889 27.9955L140.922 27.8903L140.958 27.9254M140.889 27.9955L140.958 27.9254M140.889 27.9955L140.958 27.9254" stroke="white" stroke-width="0.1" stroke-linejoin="round"/>
<path d="M126.919 22.8224L126.918 22.8223C126.888 23.0334 126.699 23.1929 126.475 23.1929H117.368C117.124 23.1929 116.922 23.0019 116.922 22.762V21.8095C116.922 21.5696 117.124 21.3786 117.368 21.3786H124.14C123.476 19.6294 121.802 18.431 119.919 18.431C117.405 18.431 115.396 20.3243 115.396 23.0476C115.396 25.7709 117.405 27.6643 119.919 27.6643C121.192 27.6643 122.369 27.1168 123.204 26.2214L123.207 26.2178L123.207 26.218C123.383 26.0633 123.656 26.0701 123.824 26.2355L123.824 26.2356L124.929 27.3275C125.097 27.4932 125.099 27.7574 124.933 27.9254C124.933 27.9254 124.933 27.9254 124.933 27.9254M126.919 22.8224L124.897 27.8903L124.933 27.9254M126.919 22.8224L126.918 22.8135C126.796 19.092 123.747 16.0453 119.919 16.0453C115.946 16.0453 112.916 19.0941 112.916 23.0476C112.916 27.0011 115.946 30.05 119.919 30.05C121.855 30.05 123.591 29.2708 124.851 28.0194C124.857 28.0128 124.862 28.0044 124.864 27.9954M126.919 22.8224L124.864 27.9954M124.933 27.9254L124.864 27.9954M124.933 27.9254L124.864 27.9954" stroke="white" stroke-width="0.1" stroke-linejoin="round"/>
</svg>
